<svg version="1" xmlns="http://www.w3.org/2000/svg" width="933.333" height="933.333" viewBox="0 0 700.000000 700.000000"><path d="M348 .7c-8.2 2.6-9 4.7-9 23.7v15.5l-52.2.3-52.3.4-6.9 2.6c-16 6.2-26.6 17.3-31.6 33.4-2 6.5-2 8.7-2 103.8 0 106.8-.4 99.8 6 103.1 2.3 1.2 7.7 1.5 28 1.5h25v23.9l-25.7.3c-22.9.3-26.1.5-28.5 2.1-1.4 1-3 2.6-3.4 3.5-.5.9-1.1 8-1.4 15.7l-.5 14-9.7.3-9.6.3-.4-14c-.5-21.8-.8-22-32.8-22-23.5 0-27 .6-30.4 5.2l-2.1 2.8v118.8c0 113.3.1 118.8 1.8 121.5 3.5 5.3 6.5 5.8 32.7 5.4 23.7-.3 23.9-.3 26.4-2.7 1.4-1.4 3-4.1 3.6-6 .6-2.2 1-29.8 1-71.9v-68.3l9.8.3 9.7.3.3 48.3c.2 43.4.4 48.6 1.9 50.9 2.7 4.1 7 5.3 19.3 5.3h11v104h-8c-4.6 0-9.5.6-11.4 1.4-6.6 2.8-6.6 2.7-6.6 36.9 0 29.5.1 31 2 33.8 1.2 1.6 3.6 3.3 5.8 3.9 5.5 1.5 98.7 1.2 103.1-.3 1.9-.7 4.4-2.5 5.5-4 2-2.7 2.1-4 2.1-33.1 0-24-.3-30.8-1.4-32.9-2.2-4-6.8-5.7-16-5.7H293V519h114v104h-8.1c-9.2 0-13.8 1.7-16 5.7-1.1 2.1-1.4 8.9-1.4 32.9 0 29.1.1 30.4 2.1 33.1 1.1 1.5 3.6 3.3 5.5 4 4.4 1.5 97.6 1.8 103.1.3 2.2-.6 4.6-2.3 5.8-3.9 1.9-2.8 2-4.3 2-33.8 0-34.2 0-34.1-6.6-36.9-1.9-.8-6.8-1.4-11.4-1.4h-8V519h11c12.3 0 16.6-1.2 19.3-5.3 1.5-2.3 1.7-7.5 1.9-50.9l.3-48.3 9.8-.3 9.7-.3v68.3c0 42.1.4 69.7 1 71.9.6 1.9 2.2 4.6 3.6 6 2.5 2.4 2.7 2.4 26.4 2.7 26.2.4 29.2-.1 32.7-5.4 1.7-2.7 1.8-8.2 1.8-121.5V317.1l-2.1-2.8c-3.4-4.6-6.9-5.2-30.4-5.2-32 0-32.3.2-32.8 22l-.4 14-9.6-.3-9.7-.3-.5-14c-.3-7.7-.9-14.8-1.4-15.7-.4-.9-2-2.5-3.4-3.5-2.4-1.6-5.6-1.8-28.4-2.1l-25.8-.3V285h25c20.3 0 25.7-.3 28-1.5 6.4-3.3 6 3.7 6-103.1 0-95.1 0-97.3-2-103.8-5-16.1-15.6-27.2-31.6-33.4l-6.9-2.6-52.2-.4-52.3-.3V24.4c0-16.7-.8-20-5.2-22.1-3.2-1.6-6-2.2-7.8-1.6zm115.8 63.8c7.4 2.2 13.1 7 16.7 14l3 5.9.3 88.8.3 88.8H215.9l.3-88.8.3-88.8 3-5.9c3.5-6.9 8.4-11.1 15.7-13.6 5-1.7 11.3-1.8 114.4-1.9 94.9 0 109.7.2 114.2 1.5zM425 297v12H275v-24h150v12zM151 436v104h-20V332h20v104zm333-22v82H216V332h268v82zm85 22v104h-20V332h20v104zm-375.5-56.5v12l-9.7.3-9.8.3v-25.2l9.8.3 9.7.3v12zm332.5 0v12.6l-9.7-.3-9.8-.3-.3-10.9c-.1-6.1 0-11.6.2-12.3.4-.9 3.1-1.3 10.1-1.3h9.5v12.5zM270 571v52h-22V519h22v52zm182 0v52h-22V519h22v52zm-156 90.5V677h-74v-31h74v15.5zm182 0V677h-74v-31h74v15.5z"/><path d="M266.1 117.6c-17.2 4.6-32.1 19.6-36.7 36.8-1.9 6.9-1.8 20 .2 26.7 2.5 8.4 7.1 16.2 13.2 22.4 20.4 20.5 52.2 20.6 72.5.2 20.8-20.9 20.7-52.2-.2-72.7-10.5-10.2-22.1-15-36.1-14.9-4.1 0-9.9.7-12.9 1.5zm25.4 23.9c9.3 4.5 16.5 15.8 16.5 26 0 14.9-13.4 28.5-28.1 28.5-25.7 0-38.7-29.9-21.1-48.4 2-2.1 6-4.9 8.7-6.3 4.2-2 6.2-2.3 12.5-2.1 4.8.3 8.9 1.1 11.5 2.3zM408 117.4c-13.4 3.8-27 14.7-32.9 26.4-10.5 20.8-6.9 43.4 9.6 59.9 27.8 27.9 74.5 15.6 85.7-22.6 2-6.7 2.1-19.8.2-26.7-4.6-17.4-19.6-32.3-37.1-36.9-7-1.8-19.2-1.8-25.5-.1zm24.5 24c18.3 8.7 22.4 31.9 8.2 46.4-14.7 15-40.4 8.5-47.3-12-3.5-10.7.7-23.9 10-30.9 6-4.6 9.4-5.7 17.6-5.8 4.9-.1 7.7.5 11.5 2.3zM263.9 355.4c-7.4 4.2-7.8 15.9-.7 19.3 4.1 2 5.6 2.2 9.2 1.2 7.5-2.1 10.2-12 4.9-17.9-3.3-3.7-9.3-4.9-13.4-2.6zM426.4 355c-9 3.6-8.2 18.3 1.2 20.9 7.6 2.1 14.4-3.1 14.4-10.9 0-7.6-8.3-13-15.6-10zM341.8 371.1c-34.9 3.5-63.5 32.7-66.4 67.7-.8 9.7.8 14.1 5.9 16.5 3.2 1.5 9.8 1.7 68.7 1.7 58.9 0 65.5-.2 68.7-1.7 5.1-2.4 6.7-6.8 5.9-16.5-1.9-23.4-16-45.7-36.4-57.8-8.1-4.7-19.8-8.7-27.8-9.5-3.2-.3-7-.7-8.4-.9-1.4-.1-5.9.1-10.2.5zm20.7 24.1c10.9 2.3 23.8 11.3 31 21.7 1.5 2.2 3.8 7 5.1 10.6l2.4 6.5H299l2.4-6.5c6.8-18.8 24.2-31.8 45.1-33.8 4-.4 9.8.2 16 1.5z"/></svg>