<svg version="1" xmlns="http://www.w3.org/2000/svg" width="933.333" height="933.333" viewBox="0 0 700.000000 700.000000"><path d="M345.4 1.4C339.5 4 339 5.7 339 23.7v16.2l-52.7.3c-49 .3-53.2.5-57.8 2.3-16.3 6.1-26.4 16.5-32.9 33.5-2 5.4-2.1 6.7-2.4 99.5-.2 51.7 0 96 .3 98.4.5 3.2 1.6 5.4 4 7.8l3.3 3.3H252v24h-24c-34.2 0-34.3 0-34.8 21.7l-.4 13.3H174v-12.6c0-22.4-.3-22.6-34.5-22.2l-24.5.3-3.2 3.3-3.3 3.2v119.4c0 129.3-.3 122.5 5.5 125.9 2.4 1.5 6.2 1.7 27 1.7 26.9 0 28.5-.3 31.4-6.4 1.4-3 1.6-10.6 1.6-72.5V415h19v45.7c0 28.2.4 47.2 1 49.5.6 2 2.4 4.8 4.1 6.2 2.9 2.5 3.6 2.6 15 2.6H225v104h-8.6c-9.4 0-13.2 1.4-15.6 5.8-1 1.9-1.3 9.5-1.3 32.8 0 29.2.1 30.4 2.1 33.1 4 5.4 3.1 5.3 57.2 5.3 56 0 55.5.1 58.6-6.5 2.2-4.6 2.4-58.7.2-64-2.1-4.9-5.9-6.5-16.1-6.5H293V519h114v104h-8.5c-10.2 0-14 1.6-16.1 6.5-2.2 5.3-2 59.4.2 64 3.1 6.6 2.6 6.5 58.6 6.5 54.1 0 53.2.1 57.2-5.3 2-2.7 2.1-3.9 2.1-33.1 0-23.3-.3-30.9-1.3-32.8-2.4-4.4-6.2-5.8-15.6-5.8H475V519h11.9c11.4 0 12.1-.1 15-2.6 1.7-1.4 3.5-4.2 4.1-6.2.6-2.3 1-21.3 1-49.5V415h19v69.1c0 61.9.2 69.5 1.6 72.5 2.9 6.1 4.5 6.4 31.4 6.4 20.8 0 24.6-.2 27-1.7 5.8-3.4 5.5 3.4 5.5-125.9V316l-3.3-3.2-3.2-3.3-24.5-.3c-34.2-.4-34.5-.2-34.5 22.2V344h-18.8l-.4-13.3c-.5-21.7-.6-21.7-34.8-21.7h-24v-24h51.2l3.3-3.3c2.4-2.4 3.5-4.6 4-7.8.3-2.4.5-46.7.3-98.4-.3-92.8-.4-94.1-2.4-99.5-6.5-17-16.6-27.4-32.9-33.5-4.6-1.8-8.8-2-57.7-2.3l-52.8-.3V23.7c0-18.1-.5-19.8-6.6-22.3-4.1-1.7-5-1.7-9 0zm118.2 76c3.8 3.8 4.5 8.6 1.9 13.5-2.7 5.2-6.4 6.1-26 6.1s-22.7-.7-25.8-5.9c-2.1-3.6-2.2-7.3-.2-11.1 3-5.8 4-6 26.3-6h20.4l3.4 3.4zm-173.2 64c5.4 2.3 12.1 9.1 14.6 14.8 8.1 18.8-5.5 39.2-26 39.1-10.8 0-19.3-5-24.6-14.5-2.5-4.6-2.9-6.3-2.9-13.3 0-7.1.3-8.6 3.1-13.5 3.8-6.6 8.5-10.6 15.6-13.2 6-2.1 14.3-1.9 20.2.6zm138.4-.9c6.9 2.1 12.9 6.9 16.6 13.5 2.8 4.9 3.1 6.4 3.1 13.5 0 7-.4 8.7-2.9 13.3-7.2 12.9-22.8 18.3-36.1 12.3-27.4-12.2-19-53.4 11.1-54 1.7-.1 5.3.6 8.2 1.4zm-4.8 157V309H276v-23h148v11.5zm43.7 48.6c2 1.8 4.3 6.4 4.3 8.9 0 1.2-.7 3.7-1.6 5.6-4.4 9.3-18.5 7.8-21.3-2.2-1.2-4.5-.3-8.1 3-11.4 4.1-4 11.3-4.4 15.6-.9zM193 379.5V391h-19v-23h19v11.5zm333 0V391h-19v-23h19v11.5zm-57.5 7.6l3 2.9v85.8l-2.4 2.6c-2.8 3-7.6 4.6-11.5 3.9-4.2-.8-8.4-5.7-9.1-10.6-.3-2.3-.5-21.3-.3-42.2.3-37.9.3-38 2.6-41.2 4.2-5.9 12.3-6.4 17.7-1.2zM270 571.5V623h-21V520h21v51.5zm181 0V623h-21V520h21v51.5z"/></svg>